<?xml version="1.0" encoding="utf-8"?>
<!-- Generator: Adobe Illustrator 16.0.0, SVG Export Plug-In . SVG Version: 6.00 Build 0)  -->
<!DOCTYPE svg PUBLIC "-//W3C//DTD SVG 1.1//EN" "http://www.w3.org/Graphics/SVG/1.1/DTD/svg11.dtd">
<svg version="1.1" id="Layer_1" xmlns="http://www.w3.org/2000/svg" xmlns:xlink="http://www.w3.org/1999/xlink" x="0px" y="0px"
	 width="667px" height="375px" viewBox="0 0 667 375" enable-background="new 0 0 667 375" xml:space="preserve">
<rect fill="#013386" width="667" height="375"/>
<g>
	<path fill="#FFFFFF" d="M249.251,49.489h15.677v84.958h-15.677V49.489z"/>
	<path fill="#FFFFFF" d="M285.83,109.231c1.363,8.836,6.248,13.551,14.201,13.551c7.27,0,12.383-4.596,12.383-11.313
		c0-3.652-2.045-6.952-5.453-8.719c-1.137-0.707-3.636-1.532-7.839-3.064c-2.727-0.941-4.203-1.414-4.544-1.532
		c-1.477-0.707-3.408-1.296-5.566-2.357c-2.727-1.059-4.885-2.237-6.59-3.415c-5.566-3.654-8.974-10.725-8.974-18.147
		c0-15.437,11.7-26.513,27.946-26.513c10.224,0,17.835,3.771,22.606,11.313c1.931,3.182,2.726,5.421,3.407,11.077l-14.541,3.651
		c-1.135-7.894-5.566-12.49-12.154-12.49c-6.59,0-11.475,4.597-11.475,10.724c0,2.592,1.023,4.831,2.84,6.598
		c0.909,0.826,1.818,1.414,3.068,2.005c1.477,0.588,5.111,2.002,7.951,3.063l4.545,1.531c4.09,1.414,8.86,3.652,11.814,5.656
		c5.566,3.889,8.975,10.841,8.975,18.382c0,15.554-12.496,27.101-29.31,27.101c-11.02,0-19.54-4.124-25.106-12.253
		c-2.158-3.183-3.066-5.421-4.316-11.195L285.83,109.231z"/>
	<path fill="#FFFFFF" d="M333.5,49.489h15.678v71.526h34.08v13.432H333.5V49.489z"/>
	<path fill="#FFFFFF" d="M410.211,49.489h19.881l24.083,84.958h-16.586l-5.794-20.386h-24.879l-5.793,20.386H385.56L410.211,49.489z
		 M410.098,101.809h18.971l-6.815-25.453c-0.454-1.531-0.909-3.299-1.25-5.066c-0.682-3.535-1.022-5.773-1.363-10.959
		c-0.454,5.186-0.795,7.188-1.477,10.959c-0.341,1.886-0.796,3.417-1.249,5.066L410.098,101.809z"/>
	<path fill="#FFFFFF" d="M456.336,49.489h25.901l11.474,50.434c0.341,1.296,0.568,2.71,0.796,4.241
		c0.795,4.241,1.022,6.716,1.363,12.727c0.227-6.364,0.567-9.073,1.249-12.608c0.114-0.824,0.682-2.592,1.022-4.359l11.36-50.434
		h26.355v84.958h-15.223V73.175c0-1.649,0-2.946,0.113-5.656c0.114-4.125,0.228-5.42,0.341-9.662l-1.136,4.83l-1.136,4.832
		l-1.25,5.656l-14.313,61.272h-14.541l-14.428-61.272c-0.341-1.532-0.908-3.535-1.249-5.656c-0.682-3.3-1.022-5.067-1.932-9.545
		c0.113,4.242,0.228,7.425,0.228,9.545c0.113,2.828,0.113,4.595,0.113,5.302v0.354v61.272h-15.109V49.489z"/>
	<path fill="#FFFFFF" d="M542.88,49.489h15.677v84.958H542.88V49.489z"/>
	<path fill="#FFFFFF" d="M612.494,78.924c-1.363-11.428-6.589-17.675-14.996-17.675c-11.36,0-17.381,10.96-17.381,32.405
		c0,20.974,6.021,31.461,17.608,31.461c8.747,0,13.973-5.892,15.677-18.265l14.769,2.005c-3.408,18.38-14.428,28.279-31.014,28.279
		c-21.016,0-33.967-16.379-33.967-43.128c0-27.69,13.405-45.13,34.535-45.13c9.088,0,17.608,3.771,23.062,10.251
		c3.748,4.597,5.793,9.662,7.271,17.087L612.494,78.924z"/>
	<path fill="#FFFFFF" d="M249.251,147.426h28.628c4.658,0,7.611,0.118,10.11,0.471c11.587,1.528,19.88,11.523,19.88,23.753
		c0,10.348-5.339,18.226-14.768,21.635l17.04,38.922h-17.04l-14.541-35.746h-13.746v35.746h-15.563V147.426z M264.814,183.761
		h12.496c6.361,0,9.315-0.589,11.588-2.705c2.385-1.881,3.862-5.292,3.862-8.937c0-5.996-3.636-10.229-9.315-11.054
		c-1.818-0.47-3.862-0.587-6.135-0.587h-12.496V183.761z"/>
	<path fill="#FFFFFF" d="M314.164,147.426h50.895v13.758h-35.33v21.166h28.74v13.404h-28.74v23.282h37.262v13.17h-52.826V147.426z"
		/>
	<path fill="#FFFFFF" d="M371.354,147.426h15.678v71.376h34.08v13.404h-49.758V147.426z"/>
	<path fill="#FFFFFF" d="M426.612,147.426h15.678v84.78h-15.678V147.426z"/>
	<path fill="#FFFFFF" d="M451.854,147.426h50.894v13.758h-35.33v21.166h28.741v13.404h-28.741v23.282h37.261v13.17h-52.824V147.426z
		"/>
	<path fill="#FFFFFF" d="M509.044,147.426h49.871v13.876h-34.308v21.283h26.469v13.64h-26.355v35.981h-15.677V147.426z"/>
	<path fill="#FFFFFF" d="M307.869,300.068c0,3.862-0.454,7.385-1.249,10.451c-3.067,11.247-13.859,18.404-28.06,18.404
		c-8.634,0-16.699-2.954-21.926-7.952c-4.885-4.658-7.384-11.588-7.384-20.903v-54.643h15.45v53.166
		c0,3.521,0.227,6.248,0.682,8.065c1.022,5.681,6.361,9.202,13.178,9.202c4.316,0,8.18-1.477,10.564-4.09
		c2.5-2.612,3.295-5.68,3.295-13.178v-53.166h15.449V300.068z"/>
	<path fill="#FFFFFF" d="M328.775,303.022c1.363,8.52,6.248,13.064,14.2,13.064c7.271,0,12.383-4.431,12.383-10.906
		c0-3.521-2.045-6.702-5.453-8.406c-1.136-0.682-3.636-1.478-7.839-2.954c-2.727-0.908-4.203-1.363-4.543-1.477
		c-1.478-0.682-3.408-1.25-5.566-2.272c-2.727-1.022-4.886-2.158-6.59-3.294c-5.566-3.521-8.975-10.338-8.975-17.495
		c0-14.882,11.701-25.561,27.946-25.561c10.224,0,17.835,3.636,22.606,10.906c1.932,3.067,2.727,5.226,3.408,10.679l-14.541,3.521
		c-1.136-7.611-5.566-12.042-12.155-12.042s-11.474,4.431-11.474,10.338c0,2.499,1.022,4.658,2.84,6.361
		c0.909,0.796,1.818,1.363,3.067,1.932c1.477,0.568,5.112,1.932,7.952,2.954l4.544,1.477c4.09,1.363,8.86,3.521,11.814,5.453
		c5.567,3.748,8.975,10.451,8.975,17.722c0,14.995-12.496,26.128-29.31,26.128c-11.02,0-19.539-3.976-25.105-11.814
		c-2.158-3.067-3.067-5.226-4.316-10.792L328.775,303.022z"/>
	<path fill="#FFFFFF" d="M394.213,245.426h19.881l24.083,81.907h-16.585l-5.794-19.653h-24.879l-5.794,19.653h-15.563
		L394.213,245.426z M394.1,295.865h18.972l-6.815-24.538c-0.455-1.477-0.91-3.181-1.25-4.885c-0.682-3.408-1.023-5.566-1.363-10.564
		c-0.455,4.998-0.795,6.93-1.477,10.564c-0.342,1.817-0.796,3.295-1.25,4.885L394.1,295.865z"/>
</g>
<path fill="#FFFFFF" d="M65.162,223.583l-0.17,0.394h131.909l-0.137-0.376c-6.374-17.178-19.036-27.813-30.27-34.22
	c-5.615-3.206-10.874-5.35-14.813-6.742c-1.967-0.694-3.604-1.194-4.791-1.544c-0.593-0.175-1.077-0.31-1.426-0.412
	c-0.179-0.049-0.322-0.088-0.427-0.128c-0.105-0.031-0.183-0.06-0.195-0.067l-0.24,0.5c15.108,7.318,25.211,23.816,27.335,38.024
	h-2.814c-0.918-1.591-1.742-4.057-2.861-7.024c-1.726-4.588-4.165-10.366-8.8-16.05c-4.642-5.69-11.49-11.267-21.999-15.454
	l-0.05-0.02h-3.629v38.548h-3.312v-38.001h-3.625l-0.044,0.012c-12.831,4.271-20.211,12.863-24.694,20.797
	c-2.246,3.969-3.78,7.751-4.909,10.763c-0.56,1.509-1.024,2.807-1.431,3.834c-0.361,0.94-0.686,1.651-0.966,2.036l-3.719-0.007
	c4.056-14.991,12.087-29.612,26.478-37.481l-0.232-0.496c-12.847,5.126-23.054,10.51-31.22,17.313
	C75.941,204.598,69.83,212.813,65.162,223.583 M57.271,260.136l0.256,2.58c1.915,18.546,10.709,35.061,23.778,46.922
	c13.074,11.871,30.453,19.102,49.504,19.102c18.963,0,36.088-7.302,48.946-19.188c12.863-11.886,21.483-28.38,23.519-46.771
	l0.287-2.604h-2.621L57.271,260.136z M176.577,306.118c-7.705,7.112-17.024,12.47-27.378,15.395
	c2.145-1.591,4.181-3.457,6.084-5.557c4.162-4.604,7.725-10.347,10.656-17.046l-4.052-1.762c-3.671,8.454-8.4,15.121-13.781,19.626
	c-2.691,2.247-5.542,3.964-8.535,5.123c-2.173,0.833-4.413,1.369-6.721,1.611l0.097-25.999l-4.409-0.012l-0.101,26.078
	c-2.614-0.187-5.146-0.772-7.616-1.746c-4.494-1.801-8.751-4.89-12.579-9.12c-3.836-4.223-7.233-9.568-10.025-15.808l-4.02,1.794
	c3.942,8.796,9.074,16.065,15.166,21.226c0.5,0.42,1.016,0.824,1.528,1.214c-9.944-3-18.941-8.167-26.436-14.97
	c-11.638-10.564-19.646-25.043-21.949-41.362l23.319,0.016c-0.004,0.341-0.008,0.694-0.008,1.08
	c-0.007,1.491,0.098,3.325,0.635,5.811l4.3-0.922c-0.465-2.19-0.522-3.576-0.53-4.889c0-0.357,0.007-0.72,0.007-1.08l38.199,0.016
	v6.41h4.409v-6.41l37.759,0.008c-0.058,0.767-0.104,1.445-0.196,2.104c-0.133,0.961-0.345,1.934-0.824,3.243l4.149,1.503
	c0.568-1.563,0.874-2.904,1.044-4.144c0.135-0.943,0.187-1.817,0.244-2.706l23.271,0.016
	C195.885,281.063,188.022,295.537,176.577,306.118 M106.445,255.588v0.882l10.644-0.009l0.013-0.266v-0.024
	c0.007-0.135,0.081-0.727,0.399-1.361h10.037c0.085,0.335,0.264,0.992,0.558,1.504l0.081,0.147l11.33,0.009v-0.882l-10.557-27.206
	h-9.978l0.167,0.377c0.911,2.119,1.171,2.846,1.416,3.505c0.23,0.607,0.461,1.188,1.172,2.723h-7.477L106.445,255.588z
	 M122.173,238.474c0.695,2.132,2.413,7.221,2.89,8.629h-5.313C120.137,245.754,121.538,240.863,122.173,238.474 M84.414,228.382
	v28.088h21.474v-7.169H93.781v-20.919H84.414z M72.157,248.65c-0.639,0.425-1.563,0.65-2.555,0.65H62.44l-0.066,7.169h12.396
	c2.125-0.009,4.266-0.898,5.88-2.342c1.617-1.453,2.719-3.477,2.719-5.775c0-0.107,0-0.203-0.004-0.309
	c-0.085-1.965-0.845-3.747-1.917-5.414c-1.605-2.488-3.916-4.706-5.813-6.922c-0.942-1.099-1.788-2.194-2.393-3.321
	c-0.593-1.111-0.954-2.23-0.954-3.414c0-0.099,0.004-0.206,0.012-0.3l0.012-0.286h-8.84l0.01,0.286
	c0.04,0.709,0.047,1.142,0.047,1.439s-0.008,0.457-0.023,0.624c-0.008,0.165-0.024,0.352-0.024,0.671
	c0.008,1.266,0.628,2.687,1.532,4.179c1.366,2.23,3.397,4.611,5.092,6.635c0.85,1.017,1.621,1.934,2.173,2.691
	c0.273,0.385,0.5,0.727,0.655,1c0.154,0.29,0.231,0.516,0.239,0.644c0,0.078,0.004,0.139,0.004,0.198
	C73.177,247.626,72.8,248.234,72.157,248.65 M178.211,254.111c-0.146,0.056-0.266,0.088-0.359,0.111l-0.101,0.032l-0.04,0.012
	l-0.212,0.043v2.143h13.22l-0.033-2.186l-0.259-0.012h-0.012c-0.062,0-0.391-0.024-0.694-0.155c-0.151-0.076-0.29-0.158-0.391-0.283
	c-0.109-0.118-0.187-0.261-0.216-0.475v-21.796c0-0.159,0.065-0.295,0.17-0.421c0.179-0.191,0.48-0.342,0.74-0.422
	c0.132-0.047,0.252-0.079,0.33-0.099l0.102-0.021h0.029l0.23-0.039v-2.163H177.5v2.465h0.272h0.045c0.129,0,0.438,0.023,0.736,0.135
	c0.152,0.048,0.288,0.111,0.393,0.206c0.089,0.076,0.167,0.166,0.212,0.278l0.024,21.821c0,0.125-0.058,0.246-0.183,0.368
	C178.809,253.85,178.492,254.009,178.211,254.111 M120.332,178.066c0.508,0.354,1.784,0.606,3.49,0.773
	c1.703,0.164,3.828,0.251,6.022,0.251c2.878,0,5.848-0.144,8.113-0.409c1.139-0.134,2.081-0.302,2.756-0.5
	c0.337-0.099,0.605-0.211,0.799-0.325c0.183-0.123,0.302-0.262,0.302-0.425c0-0.199-0.179-0.385-0.504-0.584
	c-0.977-0.547-3.479-1.19-8.206-1.929v-3.342l-0.962-1.675l0.016-1.452c0.567-0.298,0.927-0.723,1-0.996
	c0.047-0.207,0.051-0.329,0.051-0.397c0-0.075-0.004-0.099-0.02-0.127l-0.016-0.003l-0.188-0.096l-0.044-0.02l-0.032,0.028
	c0,0-0.049,0.047-0.154,0.107c-0.297,0.197-0.977,0.598-1.605,0.598c-0.427,0-0.814-0.114-1.094-0.349
	c-0.279-0.254-0.48-0.631-0.492-1.206l-0.012-0.096c0.012-1.072,0.723-1.509,1.415-1.548h0.047c0.333-0.009,0.752,0.251,1.083,0.5
	c0.17,0.136,0.313,0.258,0.41,0.354c0.105,0.1,0.159,0.153,0.159,0.153l0.024,0.028h0.455l0.061-0.281l0.004-0.024l-0.011-0.022
	c-0.004,0-0.842-1.699-2.39-1.71l-0.123,0.006c-1.264,0.072-2.824,1.053-2.836,2.688c0,1.079,0.727,1.967,1.572,2.432v1.433
	l-0.922,1.811v3.302c-3.026,0.559-5.108,1.051-6.445,1.484c-0.671,0.223-1.153,0.424-1.479,0.611
	c-0.313,0.189-0.48,0.373-0.488,0.579C120.092,177.849,120.181,177.959,120.332,178.066 M179.5,154.171
	c0,0.007-0.02,0.258-0.02,0.683c0,0.929,0.109,2.698,0.815,4.571c0.695,1.842,1.978,3.791,4.305,5.116l0.032,33.325l0.061,0.06
	c7.9,7.862,13.209,16.665,14.825,23.611l0.383-0.049v-57.451c2.556-1.684,3.868-4.067,4.518-6.061
	c0.667-2.027,0.675-3.646,0.675-3.779v-0.201h-5.173l0.016-23.499c2.524-1.655,3.82-3.974,4.475-5.93
	c0.667-1.984,0.683-3.599,0.683-3.805v-0.021v-0.191h-5.173l0.016-29.57l-6.794-36.469c0.81-0.132,1.508-0.44,2.02-0.813
	c0.271-0.199,0.5-0.409,0.667-0.612c0.167-0.197,0.288-0.396,0.325-0.583c0.071-0.313,0.098-0.495,0.098-0.606
	c0-0.116-0.018-0.184-0.082-0.259l-0.025-0.016l-0.3-0.146l-0.109-0.06l-0.099,0.08l-0.056,0.036
	c-0.26,0.205-1.446,1.007-2.504,0.999c-0.585,0-1.167-0.198-1.586-0.556c-0.426-0.354-0.698-0.846-0.706-1.485
	c0-0.051,0.008-0.118,0.008-0.174c0.054-0.643,0.256-1.04,0.528-1.349c0.274-0.303,0.627-0.501,1.004-0.675
	c0.085-0.053,0.208-0.072,0.341-0.072c0.465-0.008,1.139,0.302,1.675,0.604c0.272,0.159,0.516,0.318,0.683,0.425
	c0.089,0.067,0.15,0.107,0.2,0.144l0.072,0.047l0.045,0.043h0.784l0.093-0.492l0.016-0.071l-0.032-0.063
	c-0.003-0.009-0.337-0.628-0.979-1.271c-0.639-0.627-1.589-1.277-2.83-1.316c-0.062-0.009-0.121-0.009-0.167-0.009
	c-1.133,0-2.079,0.38-2.78,1.096c-0.698,0.71-1.152,1.722-1.381,2.968c-0.031,0.175-0.043,0.35-0.043,0.517
	c0,0.983,0.527,1.833,1.258,2.473c0.67,0.591,1.516,0.995,2.326,1.178l-6.979,36.48v29.513l-5.116,0.06l-0.016,0.179
	c0,0.008-0.02,0.253-0.02,0.678c0,0.925,0.109,2.695,0.816,4.568c0.694,1.842,1.977,3.794,4.304,5.12l0.032,22.848l-5.116,0.06
	L179.5,154.171z M162.073,237.744h-8.811v18.726h8.811V237.744z M165.589,236.895c0.361,0.239,0.742,0.688,0.877,1.695
	c0,5.238,0.02,17.597,0.02,17.597v0.283h9.908v-18.456c0-1.952-0.589-4.338-1.823-6.25c-1.213-1.916-3.089-3.382-5.61-3.382
	c-4.25-0.008-8.679-0.008-12.743-0.008c-8.148,0-14.875,0.008-15.891,0.008h-0.276v28.088h8.81v-19.836
	c7.542,0,13.375-0.009,15.813-0.009C164.837,236.625,165.222,236.653,165.589,236.895 M154.578,285.925h7.711v-3.854h-7.711v-3.854
	h9.364v-3.85h-15.419v19.28h15.98v-3.866h-9.92v-3.857H154.578z M138.612,293.648h6.054v-19.28h-6.054V293.648z M166.699,293.648
	h6.058v-7.164h6.608v-3.854h-6.608v-4.413h8.807v-3.85h-14.865V293.648z M203.197,237.22c1.165-1.102,2.824-1.686,4.864-1.686h6.335
	v-7.152h-7.984c-2.834,0-6.523,0.671-9.579,2.762c-3.052,2.093-5.431,5.648-5.568,11.276c-0.007,0.135-0.007,0.286-0.007,0.428
	c0,4.191,1.528,7.612,4.123,9.967c2.602,2.361,6.243,3.646,10.474,3.646h8.538v-7.168h-0.275c-1.636,0-3.082-0.063-4.471-0.063
	c-0.516,0-1.024,0.009-1.532,0.032c-1.87-0.227-3.602-0.833-4.858-1.908c-1.255-1.084-2.048-2.624-2.056-4.874
	c0-0.123,0.008-0.25,0.008-0.386C201.302,239.951,202.006,238.324,203.197,237.22 M60.167,254.183h-0.28h-0.016
	c-0.078,0.008-0.411-0.008-0.706-0.119c-0.147-0.071-0.291-0.143-0.384-0.258c-0.105-0.107-0.178-0.25-0.207-0.448v-21.805
	c0-0.166,0.064-0.298,0.175-0.425c0.174-0.198,0.474-0.333,0.733-0.432c0.132-0.04,0.249-0.076,0.338-0.096l0.094-0.017l0.029-0.003
	l0.236-0.044v-2.15H46.963v0.27v2.183h0.278h0.044c0.123,0.008,0.438,0.031,0.732,0.146c0.146,0.044,0.284,0.103,0.389,0.194
	c0.103,0.087,0.167,0.174,0.208,0.29l0.028,21.813c0,0.135-0.063,0.251-0.182,0.377c-0.187,0.19-0.508,0.35-0.784,0.452
	c-0.135,0.056-0.264,0.088-0.357,0.119l-0.107,0.036l-0.028,0.003l-0.22,0.048v2.152h13.218L60.167,254.183z M62.545,164.14
	l0.107,55.698l0.372,0.071c3.025-7.691,6.825-14.014,14.732-21.884l0.058-0.061l0.032-33.316c2.322-1.334,3.609-3.278,4.304-5.128
	c0.707-1.864,0.814-3.631,0.814-4.564c0-0.42-0.022-0.679-0.022-0.679l-0.016-0.174l-5.112-0.06l0.032-22.844
	c2.322-1.33,3.609-3.279,4.304-5.116c0.707-1.877,0.814-3.643,0.814-4.563c0-0.438-0.022-0.684-0.022-0.688l-0.016-0.17l-5.112-0.06
	V91.088l-6.82-36.422c0.964-0.277,1.431-0.452,1.74-0.666c0.163-0.112,0.271-0.238,0.374-0.365c0.11-0.136,0.208-0.271,0.356-0.449
	c0.449-0.539,0.457-1.258,0.461-1.273l0.004-0.132l-0.387-0.186l-0.109-0.057l-0.094,0.079l-0.062,0.037
	c-0.264,0.202-1.45,1-2.501,0.996c-0.627,0-1.175-0.164-1.578-0.504c-0.403-0.349-0.675-0.894-0.707-1.728l-0.004-0.142
	c0-0.777,0.264-1.302,0.637-1.658c0.379-0.358,0.887-0.525,1.383-0.565h0.067c0.46-0.003,0.961,0.286,1.333,0.588
	c0.191,0.15,0.345,0.306,0.46,0.421c0.052,0.052,0.089,0.103,0.125,0.135l0.036,0.048l0.045,0.047l1.236,0.366l0.109-0.552
	l0.016-0.06l-0.032-0.063c-0.004-0.008-0.321-0.644-0.931-1.295c-0.601-0.643-1.52-1.306-2.71-1.306c-0.065,0-0.119,0-0.185,0.005
	c-0.946,0.056-1.937,0.23-2.742,0.816c-0.817,0.604-1.415,1.62-1.578,3.264c-0.012,0.103-0.012,0.215-0.012,0.317
	c0,1.028,0.508,1.928,1.22,2.604c0.667,0.618,1.513,1.039,2.344,1.223l-6.798,36.481l0.02,29.57h-5.181v0.193v0.017
	c0,0.207,0.02,1.821,0.687,3.802c0.655,1.956,1.951,4.283,4.475,5.93l0.02,23.494h-5.181v0.206l0,0c0,0.137,0.012,1.763,0.679,3.783
	C58.681,160.068,59.989,162.458,62.545,164.14 M99.553,285.302c-0.562-0.353,0.617,0.35-1.538-0.718c0,0,2.585-1.627,2.585-4.707
	c0-3.369-2.369-5.509-6.607-5.509H83.528v19.28h6.06v-6.62h3.86c2.877,0.615,1.208,2.754,2.199,6.62c0,0,3.78-0.028,5.983-0.028
	C100.377,292.664,102.377,287.093,99.553,285.302 M89.568,282.063c0.06-1.24,0-3.298,0-3.298c2.189,0.124,5.233-0.697,5.306,1.58
	C94.939,282.68,91.007,281.996,89.568,282.063 M128.146,274.368h-6.058v19.28h14.873v-3.866h-8.811v-15.414H128.146z
	 M109.411,285.925h7.706v-3.854h-7.706v-3.854h9.365v-3.85h-15.425v19.28h15.977v-3.866h-9.913v-3.857H109.411z"/>
</svg>
